<?xml version="1.0" encoding="UTF-8"?>
<svg id="Warstwa_1" data-name="Warstwa 1" xmlns="http://www.w3.org/2000/svg" viewBox="0 0 1452 702">
  <defs>
    <style>
      .cls-1 {
        fill: #fff;
      }
    </style>
  </defs>
  <path class="cls-1" d="M451.69,234v234.39h-102.8l-72.33-234.39h52.24l72.33,234.39v-234.39h50.56ZM226,468.39v-234.39h50.56v234.39h-50.56Z"/>
  <path class="cls-1" d="M558.73,475.09c-14.29,0-27.23-1.9-38.84-5.69-11.38-3.8-21.1-9.49-29.13-17.08-8.04-7.59-14.29-16.85-18.75-27.79-4.24-11.16-6.36-23.89-6.36-38.17,0-30.36,7.92-52.79,23.77-67.3,16.07-14.73,38.73-22.1,67.97-22.1s52.57,7.59,69.31,22.77c16.74,15.18,25.11,37.5,25.11,66.97v13.06l-138.63.34c0,5.58,1.34,10.49,4.02,14.73,2.68,4.02,6.14,7.37,10.38,10.05,4.47,2.68,9.38,4.69,14.73,6.03,5.58,1.34,11.27,2.01,17.08,2.01,11.61,0,20.98-1.67,28.13-5.02,7.14-3.57,11.5-8.26,13.06-14.06h48.55c-4.24,21.65-14.06,37.28-29.47,46.88-15.4,9.6-35.72,14.4-60.94,14.4ZM513.19,368.61l88.73,1.01c0-5.14-1.45-9.6-4.35-13.39-2.68-3.79-6.25-6.92-10.72-9.38-4.24-2.45-9.04-4.35-14.4-5.69-5.13-1.34-10.05-2.01-14.73-2.01-5.13,0-10.38.67-15.74,2.01-5.36,1.12-10.16,2.9-14.4,5.36-4.24,2.23-7.7,5.25-10.38,9.04-2.68,3.57-4.02,7.92-4.02,13.06Z"/>
  <path class="cls-1" d="M819.05,300.97l-57.93,85.39,53.24,82.04h-54.24l-30.47-48.22-30.81,48.22h-55.58l55.58-81.03-55.58-86.39h54.91l32.15,50.9,34.15-50.9h54.58Z"/>
  <path class="cls-1" d="M882.96,468.06h-50.56v-234.06h50.56v133.94c2.68-15.4,7.03-27.57,13.06-36.5,6.03-9.15,12.5-16.07,19.42-20.76,7.14-4.69,14.17-7.7,21.09-9.04,6.92-1.56,12.84-2.34,17.75-2.34,13.17,0,24.33,2.23,33.48,6.7,9.15,4.24,16.52,10.27,22.1,18.08,5.8,7.59,10.04,16.63,12.72,27.12,2.68,10.27,4.02,21.54,4.02,33.82,0,13.17-1.34,25.11-4.02,35.83-2.68,10.71-7.03,19.98-13.06,27.79-6.03,7.59-13.95,13.51-23.77,17.75-9.6,4.24-21.32,6.36-35.16,6.36-4.91,0-10.71-.78-17.41-2.34-6.7-1.34-13.39-4.35-20.09-9.04-6.47-4.91-12.5-11.83-18.08-20.76-5.36-9.15-9.38-21.43-12.05-36.83v64.29ZM883.29,385.02c0,14.06,4.35,24.56,13.06,31.48,8.71,6.7,19.98,10.05,33.82,10.05s25.22-3.35,33.48-10.05c8.26-6.92,12.39-17.41,12.39-31.48s-4.35-23.44-13.06-30.14c-8.71-6.7-19.65-10.05-32.82-10.05-6.7,0-12.95.89-18.75,2.68-5.58,1.56-10.49,4.02-14.73,7.37-4.02,3.35-7.26,7.59-9.71,12.72-2.46,4.91-3.68,10.71-3.68,17.41Z"/>
  <path class="cls-1" d="M1132.92,475.09c-14.28,0-27.23-1.9-38.84-5.69-11.38-3.8-21.09-9.49-29.13-17.08-8.04-7.59-14.29-16.85-18.75-27.79-4.24-11.16-6.36-23.89-6.36-38.17,0-30.36,7.92-52.79,23.77-67.3,16.07-14.73,38.73-22.1,67.97-22.1s52.57,7.59,69.32,22.77c16.74,15.18,25.11,37.5,25.11,66.97v13.06l-138.63.34c0,5.58,1.34,10.49,4.02,14.73,2.68,4.02,6.14,7.37,10.38,10.05,4.47,2.68,9.38,4.69,14.74,6.03,5.58,1.34,11.27,2.01,17.07,2.01,11.61,0,20.99-1.67,28.13-5.02,7.14-3.57,11.5-8.26,13.06-14.06h48.55c-4.24,21.65-14.06,37.28-29.47,46.88-15.4,9.6-35.71,14.4-60.94,14.4ZM1087.38,368.61l88.74,1.01c0-5.14-1.45-9.6-4.36-13.39-2.67-3.79-6.25-6.92-10.71-9.38-4.24-2.45-9.04-4.35-14.4-5.69-5.13-1.34-10.04-2.01-14.73-2.01-5.14,0-10.38.67-15.74,2.01-5.36,1.12-10.16,2.9-14.4,5.36-4.24,2.23-7.7,5.25-10.38,9.04-2.68,3.57-4.02,7.92-4.02,13.06Z"/>
</svg>