<?xml version="1.0" encoding="UTF-8"?>
<svg id="Warstwa_1" data-name="Warstwa 1" xmlns="http://www.w3.org/2000/svg" xmlns:xlink="http://www.w3.org/1999/xlink" viewBox="0 0 2614 702">
  <defs>
    <style>
      .cls-1 {
        fill: url(#Gradient_bez_nazwy_5);
      }

      .cls-2 {
        fill: #230045;
      }

      .cls-3 {
        fill: url(#Gradient_bez_nazwy_5-2);
      }

      .cls-4 {
        fill: url(#Gradient_bez_nazwy_5-5);
      }

      .cls-5 {
        fill: url(#Gradient_bez_nazwy_5-3);
      }

      .cls-6 {
        fill: url(#Gradient_bez_nazwy_5-4);
      }
    </style>
    <linearGradient id="Gradient_bez_nazwy_5" data-name="Gradient bez nazwy 5" x1="1203.98" y1="601.38" x2="203.97" y2="360.29" gradientTransform="translate(0 744) scale(1 -1)" gradientUnits="userSpaceOnUse">
      <stop offset=".2" stop-color="#ff004e"/>
      <stop offset=".4" stop-color="#b5005d"/>
      <stop offset=".8" stop-color="#350066"/>
    </linearGradient>
    <linearGradient id="Gradient_bez_nazwy_5-2" data-name="Gradient bez nazwy 5" x1="1224.01" y1="518.3" x2="224" y2="277.21" xlink:href="#Gradient_bez_nazwy_5"/>
    <linearGradient id="Gradient_bez_nazwy_5-3" data-name="Gradient bez nazwy 5" x1="1233.03" y1="480.88" x2="233.02" y2="239.79" xlink:href="#Gradient_bez_nazwy_5"/>
    <linearGradient id="Gradient_bez_nazwy_5-4" data-name="Gradient bez nazwy 5" x1="1235.19" y1="471.9" x2="235.18" y2="230.81" xlink:href="#Gradient_bez_nazwy_5"/>
    <linearGradient id="Gradient_bez_nazwy_5-5" data-name="Gradient bez nazwy 5" x1="1255.55" y1="387.47" x2="255.54" y2="146.38" xlink:href="#Gradient_bez_nazwy_5"/>
  </defs>
  <g>
    <path class="cls-1" d="M451.69,234v234.39h-102.8l-72.33-234.39h52.24l72.33,234.39v-234.39h50.56ZM226,468.39v-234.39h50.56v234.39h-50.56Z"/>
    <path class="cls-3" d="M558.73,475.09c-14.29,0-27.23-1.9-38.84-5.69-11.38-3.8-21.1-9.49-29.13-17.08-8.04-7.59-14.29-16.85-18.75-27.79-4.24-11.16-6.36-23.89-6.36-38.17,0-30.36,7.92-52.79,23.77-67.3,16.07-14.73,38.73-22.1,67.97-22.1s52.57,7.59,69.31,22.77c16.74,15.18,25.11,37.5,25.11,66.97v13.06l-138.63.34c0,5.58,1.34,10.49,4.02,14.73,2.68,4.02,6.14,7.37,10.38,10.05,4.47,2.68,9.38,4.69,14.73,6.03,5.58,1.34,11.27,2.01,17.08,2.01,11.61,0,20.98-1.67,28.13-5.02,7.14-3.57,11.5-8.26,13.06-14.06h48.55c-4.24,21.65-14.06,37.28-29.47,46.88-15.4,9.6-35.72,14.4-60.94,14.4ZM513.19,368.61l88.73,1.01c0-5.14-1.45-9.6-4.35-13.39-2.68-3.79-6.25-6.92-10.72-9.38-4.24-2.45-9.04-4.35-14.4-5.69-5.13-1.34-10.05-2.01-14.73-2.01-5.13,0-10.38.67-15.74,2.01-5.36,1.12-10.16,2.9-14.4,5.36-4.24,2.23-7.7,5.25-10.38,9.04-2.68,3.57-4.02,7.92-4.02,13.06Z"/>
    <path class="cls-5" d="M819.05,300.97l-57.93,85.39,53.24,82.04h-54.24l-30.47-48.22-30.81,48.22h-55.58l55.58-81.03-55.58-86.39h54.91l32.15,50.9,34.15-50.9h54.58Z"/>
    <path class="cls-6" d="M882.96,468.06h-50.56v-234.06h50.56v133.94c2.68-15.4,7.03-27.57,13.06-36.5,6.03-9.15,12.5-16.07,19.42-20.76,7.14-4.69,14.17-7.7,21.09-9.04,6.92-1.56,12.84-2.34,17.75-2.34,13.17,0,24.33,2.23,33.48,6.7,9.15,4.24,16.52,10.27,22.1,18.08,5.8,7.59,10.04,16.63,12.72,27.12,2.68,10.27,4.02,21.54,4.02,33.82,0,13.17-1.34,25.11-4.02,35.83-2.68,10.71-7.03,19.98-13.06,27.79-6.03,7.59-13.95,13.51-23.77,17.75-9.6,4.24-21.32,6.36-35.16,6.36-4.91,0-10.71-.78-17.41-2.34-6.7-1.34-13.39-4.35-20.09-9.04-6.47-4.91-12.5-11.83-18.08-20.76-5.36-9.15-9.38-21.43-12.05-36.83v64.29ZM883.29,385.02c0,14.06,4.35,24.56,13.06,31.48,8.71,6.7,19.98,10.05,33.82,10.05s25.22-3.35,33.48-10.05c8.26-6.92,12.39-17.41,12.39-31.48s-4.35-23.44-13.06-30.14c-8.71-6.7-19.65-10.05-32.82-10.05-6.7,0-12.95.89-18.75,2.68-5.58,1.56-10.49,4.02-14.73,7.37-4.02,3.35-7.26,7.59-9.71,12.72-2.46,4.91-3.68,10.71-3.68,17.41Z"/>
    <path class="cls-4" d="M1132.92,475.09c-14.28,0-27.23-1.9-38.84-5.69-11.38-3.8-21.09-9.49-29.13-17.08-8.04-7.59-14.29-16.85-18.75-27.79-4.24-11.16-6.36-23.89-6.36-38.17,0-30.36,7.92-52.79,23.77-67.3,16.07-14.73,38.73-22.1,67.97-22.1s52.57,7.59,69.32,22.77c16.74,15.18,25.11,37.5,25.11,66.97v13.06l-138.63.34c0,5.58,1.34,10.49,4.02,14.73,2.68,4.02,6.14,7.37,10.38,10.05,4.47,2.68,9.38,4.69,14.74,6.03,5.58,1.34,11.27,2.01,17.07,2.01,11.61,0,20.99-1.67,28.13-5.02,7.14-3.57,11.5-8.26,13.06-14.06h48.55c-4.24,21.65-14.06,37.28-29.47,46.88-15.4,9.6-35.71,14.4-60.94,14.4ZM1087.38,368.61l88.74,1.01c0-5.14-1.45-9.6-4.36-13.39-2.67-3.79-6.25-6.92-10.71-9.38-4.24-2.45-9.04-4.35-14.4-5.69-5.13-1.34-10.04-2.01-14.73-2.01-5.14,0-10.38.67-15.74,2.01-5.36,1.12-10.16,2.9-14.4,5.36-4.24,2.23-7.7,5.25-10.38,9.04-2.68,3.57-4.02,7.92-4.02,13.06Z"/>
  </g>
  <g>
    <polygon class="cls-2" points="1384.75 396.89 1431.87 396.89 1431.87 381.18 1384.75 381.18 1384.75 355.24 1433.55 355.24 1433.55 339.39 1366.52 339.39 1366.52 438.96 1434.68 438.96 1434.68 423.11 1384.75 423.11 1384.75 396.89"/>
    <path class="cls-2" d="M1498.8,366.04c-3.74-2.43-8.37-3.65-13.88-3.65-4.03,0-7.72.75-11.08,2.24-3.37,1.5-6.22,3.83-8.56,7.01-1.11,1.51-2.04,3.27-2.79,5.25l-.43-12.82h-16.27v74.89h17.95v-42.35c0-6.36,1.4-11.22,4.21-14.58,2.89-3.37,6.73-5.05,11.5-5.05,3.17,0,5.7.79,7.57,2.38,1.96,1.5,3.36,3.69,4.21,6.59.84,2.9,1.26,6.45,1.26,10.66v42.35h17.95v-48.1c0-5.61-.98-10.52-2.95-14.72-1.96-4.3-4.86-7.67-8.69-10.1Z"/>
    <path class="cls-2" d="M1576.06,367.16c-5.33-3.18-11.55-4.77-18.66-4.77s-13.69,1.64-19.21,4.91c-5.42,3.27-9.63,7.85-12.62,13.74-2.99,5.8-4.49,12.62-4.49,20.48s1.5,14.73,4.49,20.62c2.99,5.89,7.25,10.47,12.76,13.74,5.52,3.18,12.02,4.77,19.49,4.77,8.61,0,15.9-2.1,21.88-6.31,6.08-4.21,10.15-9.96,12.2-17.25l-18.37-1.12c-1.03,3.27-2.9,5.84-5.61,7.71-2.62,1.78-5.93,2.66-9.96,2.66-5.32,0-9.62-1.64-12.9-4.91-3.18-3.36-4.95-8.32-5.33-14.86h53.15v-4.07c0-8.41-1.44-15.61-4.34-21.6-2.9-5.98-7.06-10.57-12.48-13.74ZM1539.73,394.5c.75-5.8,2.67-10.24,5.75-13.32,3.18-3.09,7.16-4.63,11.92-4.63s8.7,1.5,11.78,4.49c3.09,2.9,4.82,7.39,5.19,13.46h-34.64Z"/>
    <path class="cls-2" d="M1626.41,368.98c-2.14,2.2-3.79,5.38-4.98,9.51l-.49-14.42h-16.83v74.89h17.95v-43.19c0-3.83.61-6.92,1.83-9.26,1.3-2.43,3.22-4.21,5.75-5.33,2.52-1.12,5.7-1.68,9.53-1.68h7.01v-15.43h-6.87c-5.42,0-9.72,1.64-12.9,4.91Z"/>
    <path class="cls-2" d="M1702.86,375.71c-1.78-4.02-4.63-7.25-8.55-9.68-3.93-2.43-8.61-3.65-14.03-3.65-6.17,0-11.64,1.59-16.41,4.77-4.76,3.09-8.5,7.39-11.22,12.9-2.61,5.42-3.92,11.73-3.92,18.93s1.35,13.56,4.06,19.07c2.72,5.42,6.46,9.68,11.22,12.76,4.87,2.99,10.38,4.49,16.55,4.49,4.86,0,9.26-1.07,13.18-3.22,3.93-2.24,6.78-5.19,8.56-8.84v9.54c0,5.24-1.5,9.07-4.49,11.5-2.99,2.52-7.24,3.79-12.76,3.79-4.86,0-8.46-.79-10.8-2.38-2.24-1.59-3.83-3.79-4.77-6.59l-18.51,1.26c1.12,4.21,3.09,7.9,5.89,11.08,2.9,3.27,6.69,5.8,11.36,7.57,4.68,1.78,10.29,2.66,16.83,2.66,7.11,0,13.28-1.12,18.51-3.36,5.33-2.15,9.44-5.42,12.34-9.82,2.99-4.39,4.49-9.77,4.49-16.13v-68.3h-17.53v11.64ZM1697.53,415.4c-3.18,3.93-7.43,5.89-12.76,5.89s-9.58-2.01-12.76-6.03c-3.09-4.11-4.63-9.58-4.63-16.41s1.5-12.25,4.49-16.27c3.08-4.11,7.38-6.17,12.9-6.17,3.65,0,6.78.93,9.4,2.8,2.71,1.78,4.76,4.35,6.17,7.71,1.49,3.27,2.19,7.25,2.1,11.92-.09,7.01-1.73,12.53-4.91,16.55Z"/>
    <rect class="cls-2" x="1735.59" y="338.13" width="18.65" height="15.99"/>
    <rect class="cls-2" x="1735.87" y="364.07" width="17.95" height="74.89"/>
    <path class="cls-2" d="M1833.16,424.8c-.65-.75-.98-2.1-.98-4.07v-27.21c0-10-2.76-17.67-8.27-23-5.43-5.42-13.47-8.13-24.12-8.13-9.26,0-16.79,2.15-22.58,6.45-5.8,4.21-9.45,10.29-10.94,18.23l18.23.84c.93-3.74,2.62-6.59,5.05-8.55,2.52-2.06,5.94-3.08,10.24-3.08,4.76,0,8.36,1.36,10.79,4.07,2.44,2.62,3.65,6.59,3.65,11.92l-24.82,4.91c-8.23,1.59-14.35,4.21-18.37,7.85-4.02,3.65-6.03,8.7-6.03,15.15s2.38,11.5,7.15,15.15c4.77,3.55,11.08,5.33,18.93,5.33,4.68,0,8.88-.7,12.62-2.1,3.74-1.4,6.83-3.37,9.26-5.89,1.57-1.63,2.79-3.38,3.68-5.26.32,2.17.86,4.02,1.65,5.54,1.31,2.43,3.18,4.16,5.61,5.19,2.43.93,5.19,1.4,8.27,1.4,1.31,0,2.57-.05,3.79-.14,1.31-.09,2.24-.23,2.8-.42v-13.04h-2.38c-1.4,0-2.48-.37-3.23-1.12ZM1814.23,408.67c0,3.83-.79,7.15-2.38,9.96-1.59,2.8-3.84,5-6.73,6.59-2.9,1.59-6.36,2.38-10.38,2.38-3.56,0-6.31-.8-8.28-2.38-1.87-1.59-2.8-3.83-2.8-6.73,0-2.62.84-4.72,2.52-6.31,1.78-1.68,4.68-2.95,8.7-3.79l19.35-3.93v4.21Z"/>
    <path class="cls-2" d="M1931.25,366.04c-3.74-2.43-8.37-3.65-13.89-3.65-4.02,0-7.71.75-11.07,2.24-3.37,1.5-6.22,3.83-8.56,7.01-1.11,1.51-2.04,3.27-2.79,5.25l-.43-12.82h-16.27v74.89h17.95v-42.35c0-6.36,1.4-11.22,4.21-14.58,2.89-3.37,6.73-5.05,11.49-5.05,3.18,0,5.71.79,7.58,2.38,1.96,1.5,3.36,3.69,4.2,6.59.85,2.9,1.27,6.45,1.27,10.66v42.35h17.95v-48.1c0-5.61-.98-10.52-2.95-14.72-1.96-4.3-4.86-7.67-8.69-10.1Z"/>
    <path class="cls-2" d="M2021.82,424.8c-.65-.75-.98-2.1-.98-4.07v-27.21c0-10-2.76-17.67-8.27-23-5.42-5.42-13.46-8.13-24.12-8.13-9.26,0-16.78,2.15-22.58,6.45-5.8,4.21-9.44,10.29-10.94,18.23l18.23.84c.94-3.74,2.62-6.59,5.05-8.55,2.52-2.06,5.94-3.08,10.24-3.08,4.77,0,8.36,1.36,10.8,4.07,2.43,2.62,3.64,6.59,3.64,11.92l-24.82,4.91c-8.23,1.59-14.35,4.21-18.37,7.85-4.02,3.65-6.03,8.7-6.03,15.15s2.38,11.5,7.15,15.15c4.77,3.55,11.08,5.33,18.93,5.33,4.68,0,8.88-.7,12.62-2.1,3.74-1.4,6.83-3.37,9.26-5.89,1.57-1.63,2.8-3.39,3.68-5.27.31,2.17.86,4.03,1.65,5.55,1.31,2.43,3.18,4.16,5.61,5.19,2.43.93,5.19,1.4,8.27,1.4,1.31,0,2.57-.05,3.79-.14,1.31-.09,2.24-.23,2.8-.42v-13.04h-2.38c-1.4,0-2.48-.37-3.23-1.12ZM2002.89,408.67c0,3.83-.79,7.15-2.38,9.96-1.59,2.8-3.84,5-6.73,6.59-2.9,1.59-6.36,2.38-10.38,2.38-3.55,0-6.31-.8-8.28-2.38-1.87-1.59-2.8-3.83-2.8-6.73,0-2.62.84-4.72,2.52-6.31,1.78-1.68,4.68-2.95,8.7-3.79l19.35-3.93v4.21Z"/>
    <polygon class="cls-2" points="2129.45 378.94 2129.45 364.07 2066.62 364.07 2066.62 377.96 2108.27 377.96 2064.94 424.09 2064.94 438.96 2130.43 438.96 2130.43 425.08 2085.69 425.08 2129.45 378.94"/>
    <rect class="cls-2" x="2088.78" y="338.13" width="18.65" height="15.99"/>
    <path class="cls-2" d="M2169.82,419.19l-18.79-55.12h-18.65l26.78,71.94h5.19l-2.1,5.19c-.66,1.78-1.59,3.04-2.81,3.79-1.12.75-2.9,1.12-5.33,1.12h-9.53v13.88h12.76c5.42,0,9.63-1.03,12.62-3.09,3.09-2.06,5.47-5.42,7.15-10.1l29.31-82.74h-18.65l-17.95,55.12Z"/>
    <path class="cls-2" d="M2243.59,376.97c4.3,0,7.9,1.26,10.79,3.79,3,2.43,4.87,6.03,5.61,10.8l18.52-.98c-.75-5.98-2.72-11.03-5.89-15.15-3.09-4.21-7.11-7.43-12.07-9.68-4.95-2.24-10.61-3.37-16.96-3.37-7.48,0-13.98,1.64-19.5,4.91-5.51,3.27-9.81,7.85-12.9,13.74-2.99,5.8-4.49,12.62-4.49,20.48s1.5,14.73,4.49,20.62c3.09,5.89,7.39,10.47,12.9,13.74,5.52,3.18,12.02,4.77,19.5,4.77,6.45,0,12.15-1.17,17.1-3.51,4.96-2.43,8.98-5.84,12.07-10.24,3.08-4.39,5-9.58,5.75-15.57l-18.52-.84c-.65,5.33-2.47,9.26-5.47,11.78-2.89,2.52-6.54,3.79-10.93,3.79-5.8,0-10.29-2.15-13.47-6.45-3.18-4.3-4.77-10.33-4.77-18.09s1.59-13.65,4.77-17.95c3.18-4.4,7.67-6.59,13.47-6.59Z"/>
    <rect class="cls-2" x="2288.23" y="364.07" width="17.95" height="74.89"/>
    <rect class="cls-2" x="2287.95" y="338.13" width="18.65" height="15.99"/>
    <path class="cls-2" d="M2387.77,402.5c0-8.41-1.45-15.61-4.35-21.6-2.9-5.98-7.06-10.57-12.48-13.74-5.33-3.18-11.55-4.77-18.65-4.77s-13.7,1.64-19.22,4.91c-5.42,3.27-9.63,7.85-12.62,13.74-2.99,5.8-4.49,12.62-4.49,20.48s1.5,14.73,4.49,20.62c2.99,5.89,7.25,10.47,12.76,13.74,5.52,3.18,12.02,4.77,19.5,4.77,8.6,0,15.89-2.1,21.87-6.31,6.08-4.21,10.15-9.96,12.21-17.25l-18.38-1.12c-1.02,3.27-2.89,5.84-5.61,7.71-2.61,1.78-5.93,2.66-9.95,2.66-5.33,0-9.63-1.64-12.91-4.91-3.17-3.36-4.95-8.32-5.32-14.86h53.15v-4.07ZM2334.62,394.5c.74-5.8,2.66-10.24,5.75-13.32,3.17-3.09,7.15-4.63,11.92-4.63s8.69,1.5,11.78,4.49c3.08,2.9,4.81,7.39,5.19,13.46h-34.64Z"/>
  </g>
</svg>