<svg xmlns="http://www.w3.org/2000/svg" viewBox="0 0 64 64" class="nexbe-icon" aria-label="Instalacja fotowoltaiczna na dachu" fill="none" stroke="currentColor" stroke-width="2" stroke-linecap="round" stroke-linejoin="round">
  <title>Instalacja fotowoltaiczna na dachu</title>
  <!-- House -->
  <path d="M6,34 L32,10 L58,34"/>
  <rect x="12" y="34" width="40" height="24" rx="2"/>
  <!-- Door -->
  <rect x="26" y="44" width="12" height="14" rx="2"/>
  <!-- Panels on roof -->
  <rect x="16" y="19" width="12" height="8" rx="1" transform="rotate(-33 22 23)"/>
  <rect x="30" y="13" width="12" height="8" rx="1" transform="rotate(-33 36 17)"/>
  <!-- Panel grid -->
  <line x1="22" y1="19" x2="22" y2="27" transform="rotate(-33 22 23)" opacity="0.5"/>
  <line x1="36" y1="13" x2="36" y2="21" transform="rotate(-33 36 17)" opacity="0.5"/>
  <!-- Sun rays top right -->
  <circle cx="52" cy="8" r="4"/>
  <line x1="52" y1="2" x2="52" y2="4"/>
  <line x1="58" y1="8" x2="56" y2="8"/>
  <line x1="56" y1="4" x2="54.5" y2="5.5"/>
</svg>