<svg xmlns="http://www.w3.org/2000/svg" viewBox="0 0 64 64" class="nexbe-icon" aria-label="Vehicle-to-Home — samochód zasila dom" fill="none" stroke="currentColor" stroke-width="2" stroke-linecap="round" stroke-linejoin="round">
  <title>Vehicle-to-Home — samochód zasila dom</title>
  <!-- Car silhouette (left) -->
  <path d="M4,40 L8,40 L10,34 L22,34 L24,40 L28,40"/>
  <circle cx="10" cy="42" r="3"/>
  <circle cx="22" cy="42" r="3"/>
  <line x1="14" y1="34" x2="18" y2="34" opacity="0.4"/>
  <!-- Bidirectional arrow -->
  <path d="M30,32 L34,28 L34,31 L40,31" opacity="0.7"/>
  <path d="M40,36 L36,40 L36,37 L30,37" opacity="0.7"/>
  <!-- Lightning in arrow center -->
  <path d="M34,32 L36,32 L35,35 L37,35 L34,39 L34.8,36 L33.5,36Z" opacity="0.5"/>
  <!-- House (right) -->
  <path d="M40,30 L52,20 L64,30"/>
  <rect x="43" y="30" width="18" height="16" rx="1.5"/>
  <!-- Window -->
  <rect x="48" y="34" width="8" height="6" rx="1" opacity="0.4"/>
</svg>