<svg xmlns="http://www.w3.org/2000/svg" viewBox="0 0 64 64" class="nexbe-icon" aria-label="Partnerstwo — uścisk dłoni" fill="none" stroke="currentColor" stroke-width="2" stroke-linecap="round" stroke-linejoin="round">
  <title>Partnerstwo — uścisk dłoni</title>
  <!-- Left hand -->
  <path d="M4,36 L14,36 L22,28 Q24,26 28,28 L34,32"/>
  <!-- Right hand -->
  <path d="M60,36 L50,36 L42,28 Q40,26 36,28 L30,32"/>
  <!-- Handshake clasp -->
  <path d="M28,32 Q32,36 36,32"/>
  <!-- Arms -->
  <path d="M4,36 L4,44 L18,44 L24,38" opacity="0.5"/>
  <path d="M60,36 L60,44 L46,44 L40,38" opacity="0.5"/>
  <!-- Lightning bolt above (energy partnership) -->
  <path d="M30,14 L33,14 L31,19 L34,19 L29,26 L30.5,20 L28.5,20Z"/>
  <!-- Small energy sparks -->
  <line x1="22" y1="18" x2="24" y2="16" opacity="0.4"/>
  <line x1="42" y1="18" x2="40" y2="16" opacity="0.4"/>
</svg>