<svg xmlns="http://www.w3.org/2000/svg" viewBox="0 0 64 64" class="nexbe-icon" aria-label="Nagroda Forbes 30 under 30" fill="none" stroke="currentColor" stroke-width="2" stroke-linecap="round" stroke-linejoin="round">
  <title>Nagroda Forbes 30 under 30</title>
  <!-- Laurel left -->
  <path d="M12,46 Q8,36 12,26 Q10,32 14,36" opacity="0.5"/>
  <path d="M14,48 Q8,38 14,24 Q10,34 16,38" opacity="0.4"/>
  <path d="M16,50 Q8,40 16,22 Q10,34 18,40" opacity="0.3"/>
  <!-- Laurel right -->
  <path d="M52,46 Q56,36 52,26 Q54,32 50,36" opacity="0.5"/>
  <path d="M50,48 Q56,38 50,24 Q54,34 48,38" opacity="0.4"/>
  <path d="M48,50 Q56,40 48,22 Q54,34 46,40" opacity="0.3"/>
  <!-- Central badge -->
  <circle cx="32" cy="28" r="16"/>
  <circle cx="32" cy="28" r="12" opacity="0.3"/>
  <!-- Star inside -->
  <path d="M32,16 L34.5,24 L43,24 L36.5,29 L38.5,37 L32,32 L25.5,37 L27.5,29 L21,24 L29.5,24Z"/>
  <!-- Ribbon -->
  <line x1="24" y1="44" x2="20" y2="56"/>
  <line x1="40" y1="44" x2="44" y2="56"/>
  <line x1="32" y1="44" x2="32" y2="52"/>
</svg>