<svg xmlns="http://www.w3.org/2000/svg" viewBox="0 0 64 64" class="nexbe-icon" aria-label="Kalkulator energetyczny" fill="none" stroke="currentColor" stroke-width="2" stroke-linecap="round" stroke-linejoin="round">
  <title>Kalkulator energetyczny</title>
  <!-- Calculator body -->
  <rect x="14" y="6" width="36" height="52" rx="4"/>
  <!-- Screen -->
  <rect x="19" y="11" width="26" height="12" rx="2"/>
  <!-- Lightning on screen -->
  <path d="M30,13 L33,13 L31,18 L34,18 L29,23 L30.5,19 L28.5,19Z" opacity="0.5"/>
  <!-- Buttons row 1 -->
  <rect x="19" y="28" width="6" height="5" rx="1"/>
  <rect x="29" y="28" width="6" height="5" rx="1"/>
  <rect x="39" y="28" width="6" height="5" rx="1"/>
  <!-- Buttons row 2 -->
  <rect x="19" y="37" width="6" height="5" rx="1"/>
  <rect x="29" y="37" width="6" height="5" rx="1"/>
  <rect x="39" y="37" width="6" height="5" rx="1"/>
  <!-- Buttons row 3 -->
  <rect x="19" y="46" width="6" height="5" rx="1"/>
  <rect x="29" y="46" width="16" height="5" rx="1"/>
</svg>