<svg xmlns="http://www.w3.org/2000/svg" viewBox="0 0 64 64" class="nexbe-icon" aria-label="Ulga termomodernizacyjna" fill="none" stroke="currentColor" stroke-width="2" stroke-linecap="round" stroke-linejoin="round">
  <title>Ulga termomodernizacyjna</title>
  <!-- Document -->
  <rect x="12" y="6" width="32" height="42" rx="3"/>
  <!-- Document fold -->
  <path d="M34,6 L44,16 L34,16Z"/>
  <!-- Checkbox lines -->
  <rect x="17" y="22" width="5" height="5" rx="1"/>
  <path d="M18,25 L19.5,27 L22,23"/>
  <line x1="26" y1="24.5" x2="38" y2="24.5"/>
  <rect x="17" y="32" width="5" height="5" rx="1"/>
  <path d="M18,35 L19.5,37 L22,33"/>
  <line x1="26" y1="34.5" x2="36" y2="34.5"/>
  <!-- House icon (bottom right) -->
  <path d="M42,42 L52,34 L62,42"/>
  <rect x="44" y="42" width="16" height="14" rx="2"/>
  <!-- Heat waves on house -->
  <path d="M49,48 Q50,45 49,42" opacity="0.5"/>
  <path d="M55,48 Q56,45 55,42" opacity="0.5"/>
</svg>