<svg xmlns="http://www.w3.org/2000/svg" viewBox="0 0 64 64" class="nexbe-icon" aria-label="Energia nocna — ładowanie tanim prądem" fill="none" stroke="currentColor" stroke-width="2" stroke-linecap="round" stroke-linejoin="round">
  <title>Energia nocna — ładowanie tanim prądem</title>
  <!-- Moon -->
  <path d="M18,8 Q28,8 28,22 Q28,36 18,36 Q26,32 26,22 Q26,12 18,8Z"/>
  <!-- Stars -->
  <circle cx="38" cy="10" r="1.5"/>
  <circle cx="48" cy="16" r="1"/>
  <circle cx="44" cy="6" r="1"/>
  <!-- Battery -->
  <rect x="16" y="36" width="32" height="22" rx="4"/>
  <rect x="28" y="32" width="8" height="4" rx="2"/>
  <!-- Charge segments -->
  <rect x="20" y="44" width="10" height="10" rx="1.5"/>
  <rect x="34" y="44" width="10" height="10" rx="1.5"/>
  <rect x="20" y="38" width="10" height="4" rx="1" opacity="0.3"/>
  <!-- Arrow down (cheap energy) -->
  <line x1="52" y1="28" x2="52" y2="40"/>
  <polyline points="49,37 52,40 55,37"/>
</svg>