<svg xmlns="http://www.w3.org/2000/svg" viewBox="0 0 64 64" class="nexbe-icon" aria-label="Baza wiedzy" fill="none" stroke="currentColor" stroke-width="2" stroke-linecap="round" stroke-linejoin="round">
  <title>Baza wiedzy</title>
  <!-- Open book -->
  <path d="M32,14 L32,52"/>
  <path d="M32,14 Q20,12 8,16 L8,52 Q20,48 32,52"/>
  <path d="M32,14 Q44,12 56,16 L56,52 Q44,48 32,52"/>
  <!-- Left page lines -->
  <line x1="14" y1="24" x2="28" y2="22" opacity="0.4"/>
  <line x1="14" y1="30" x2="28" y2="28" opacity="0.3"/>
  <line x1="14" y1="36" x2="28" y2="34" opacity="0.3"/>
  <line x1="14" y1="42" x2="26" y2="40" opacity="0.2"/>
  <!-- Right page — lightbulb (knowledge/idea) -->
  <circle cx="44" cy="30" r="6" opacity="0.5"/>
  <line x1="44" y1="36" x2="44" y2="40" opacity="0.4"/>
  <path d="M41,38 L47,38" opacity="0.3"/>
  <!-- Energy spark top -->
  <line x1="44" y1="20" x2="44" y2="22" opacity="0.3"/>
  <line x1="38" y1="24" x2="40" y2="26" opacity="0.3"/>
  <line x1="50" y1="24" x2="48" y2="26" opacity="0.3"/>
</svg>